<?xml version="1.0" encoding="UTF-8"?>
<svg id="Layer_1" data-name="Layer 1" xmlns="http://www.w3.org/2000/svg" viewBox="0 0 512 512">
  <defs>
    <style>
      .cls-1 {
        fill: #000;
        stroke-width: 0px;
      }
    </style>
  </defs>
  <path class="cls-1" d="M243.43,255.4c1.9-2.25,3.06-5.13,3.12-8.31.02-.85.01-1.7.02-2.55,0,0,0,0,.01,0,0-.74,0-1.46,0-2.19,0-1.07.02-2.15.01-3.22,0-2.19.01-4.36-.04-6.52-.08-3.72-1.77-7.06-4.37-9.41-.03-.03-.07-.06-.1-.09-.25-.22-.5-.43-.76-.63-.11-.08-.22-.16-.33-.24-.21-.15-.41-.29-.63-.43-.16-.1-.32-.19-.48-.29-.19-.11-.38-.22-.58-.32-.17-.09-.35-.17-.53-.25-.2-.09-.41-.19-.61-.27-.16-.07-.33-.12-.5-.18-.23-.08-.47-.17-.71-.24-.14-.04-.29-.08-.44-.11-.27-.07-.53-.14-.81-.19-.15-.03-.31-.05-.46-.07-.26-.04-.52-.08-.79-.11-.04,0-.07-.01-.11-.02-.27-.02-.54-.03-.82-.03-.08,0-.17-.01-.25-.01-.01,0-.02,0-.03,0-5.6-.05-10.76,3.31-12.51,8.55-.49,1.27-.78,2.63-.83,4.05-.17,4.98-.2,9.98,0,14.96.14,3.51,1.32,6.39,3.44,8.61,0,.01,0,.02.01.04h.02c1.27,1.32,2.89,2.4,4.82,3.24,1.12.49,2.27.82,3.44.96v.04c.16,0,.3,0,.45,0,.6.05,1.21.05,1.83-.01.04,0,.08,0,.13,0,3.6-.25,6.77-1.86,9.02-4.31M228.48,247.52c-.03-3.57-.1-7.15-.09-10.72.01-1.4.03-2.79.07-4.19.04-1.65.96-2.97,2.27-3.72.18-.1.38-.18.58-.26.07-.03.13-.06.2-.08.57-.2,1.2-.3,1.84-.29.93.02,1.81.29,2.54.74,0,0,.02,0,.02.01.19.12.36.26.52.4.08.07.17.14.24.22.08.08.15.17.23.26.14.17.28.34.4.53.01.02.02.04.03.06.14.24.26.49.37.76.02.04.03.08.04.13.06.18.11.38.16.57.05.24.09.49.09.74.1,4.85.11,9.71,0,14.56-.06,2.52-2.09,4.29-4.62,4.4-.16,0-.85-.13-1.01-.14-.46-.08-.38-.07-.83-.2-1.8-.52-2.95-1.92-3.05-3.78Z"/>
  <path class="cls-1" d="M289.18,255.32c1.85-2.24,2.99-5.09,3.05-8.23.02-.85.01-1.7.02-2.55.02,0,.03,0,.05,0,0-4.09.07-8.01-.02-11.92-.14-6.33-4.9-11.58-10.98-12.68,0,0-.01,0-.02,0-.39-.07-.78-.12-1.17-.16-.03,0-.06,0-.09-.01-.21-.02-.41-.02-.62-.03-.14,0-.27-.02-.41-.02-.02,0-.03,0-.05,0-5.93-.06-11.37,3.7-12.8,9.47-.3,1-.48,2.04-.52,3.12-.17,4.98-.2,9.98,0,14.96.14,3.47,1.3,6.33,3.38,8.53.01.04.02.07.03.11h.05c1.28,1.31,2.89,2.4,4.82,3.24,1.1.48,2.24.81,3.4.96v.04c.17,0,.33,0,.5,0,.61.05,1.22.05,1.84-.01.02,0,.05,0,.07,0,.03,0,.05,0,.08,0,.04,0,.07,0,.11-.01,3.52-.29,6.62-1.89,8.83-4.3M274.18,247.37c-.11-4.92-.14-9.84,0-14.76.05-1.98,1.36-3.49,3.11-4.09.18-.06.36-.1.55-.14.09-.02.18-.05.28-.06.3-.04.6-.07.92-.06,1.87.04,3.5,1.07,4.23,2.64,0,.02.02.03.02.05.24.52.38,1.11.39,1.73.1,4.85.11,9.71,0,14.56-.06,2.54-2.12,4.31-4.67,4.4-.05,0-.11,0-.16,0-.54-.09-1.07-.2-1.58-.34-1.86-.53-3.03-2-3.07-3.93Z"/>
  <path class="cls-1" d="M256.01,278.38c-2.95,0-5.9.03-8.85,0-2.61-.03-4.37-1.64-4.46-3.98-.09-2.47,1.61-4.39,4.25-4.43,6.03-.09,12.06-.08,18.08,0,2.67.03,4.43,1.89,4.39,4.31-.04,2.4-1.87,4.09-4.56,4.12-2.95.03-5.9,0-8.85,0Z"/>
  <path class="cls-1" d="M315.1,300.18s0,0,0,0c0-.2,0-.4,0-.6,0-19.03.01-38.06-.03-57.09,0-2.49-.13-4.99-.44-7.46-3.93-31.22-31.16-53.69-62.59-51.68-29.89,1.91-54.17,26.62-54.89,56.56l-.02,70.62c-.25,6.33,3.28,12.69,9.02,15.72,8.39,4.44,15.91,2.63,22.53-3.79,7.23,7.68,18.93,8.69,27.34.08,10.76,8.29,17.04,8.28,27.41-.05,7.71,6.56,14.97,7.89,22.12,4.04,5.93-3.19,9.66-9.88,9.54-15.41,0-.24,0-.33,0-.49v-10.46ZM306.56,310.05c0,5.19-2.91,8.92-7.56,9.88-5.22,1.08-10.3-2.42-11.15-7.7-.08-.52-.15-1.04-.21-1.56-.29-2.62-1.95-4.27-4.27-4.23-2.32.04-3.92,1.69-4.14,4.37-.21,2.66-1.08,5.01-3.12,6.79-2.91,2.56-6.24,3.31-9.87,1.81-3.58-1.48-5.58-4.24-5.9-8.13-.25-3-1.85-4.86-4.32-4.85-2.46,0-4.03,1.82-4.26,4.91-.35,4.79-4.25,8.59-9.01,8.79-4.7.2-8.84-3.14-9.67-7.81-.1-.58-.15-1.17-.21-1.76-.27-2.47-1.95-4.13-4.19-4.14-2.2,0-4.02,1.69-4.19,4.11-.27,3.75-1.78,6.72-5.17,8.49-6.39,3.33-13.7-1.13-13.76-8.46-.08-11.95-.02-23.89-.02-35.84,0-10.76-.06-21.53,0-32.29.15-24.43,16.4-44.44,40.28-49.69,27.16-5.98,55.13,12.77,59.85,40.18.51,2.96.84,5.99.85,9,.07,22.71.05,45.42.03,68.13Z"/>
</svg>