<?xml version="1.0" encoding="UTF-8"?>
<svg id="Layer_1" data-name="Layer 1" xmlns="http://www.w3.org/2000/svg" viewBox="0 0 271.4 254.55">
  <defs>
    <style>
      .cls-1 {
        fill: #000;
        stroke-width: 0px;
      }
    </style>
  </defs>
  <path class="cls-1" d="M135.31,254.54c-30.1,0-60.21,0-90.31,0-26.41,0-44.9-18.41-44.98-44.82-.03-10.81-.06-21.62.01-32.43.07-10.59,7.02-18.07,16.57-17.99,9.66.08,16.25,7.4,16.3,18.19.04,10.81-.02,21.62.02,32.43.03,7.74,3.85,11.76,11.63,11.76,60.7.06,121.41.06,182.11.01,8.09,0,11.78-3.92,11.8-12.07.04-10.81-.03-21.62.02-32.43.05-10.38,6.75-17.76,16.13-17.89,9.63-.13,16.67,7.29,16.73,17.79.06,11.14.07,22.29.01,33.43-.12,25.45-18.79,44.01-44.25,44.03-30.6.02-61.2,0-91.8,0Z"/>
  <path class="cls-1" d="M119.4,131.97c0-1.78,0-3.55,0-5.33,0-36.25-.01-72.5.02-108.76,0-8.55,3.7-14.29,10.64-16.85,9.56-3.52,19.89,2.28,21.69,12.27.38,2.11.44,4.3.45,6.45.02,35.59.01,71.17.01,106.76,0,1.76,0,3.51,0,5.27.54.35,1.08.69,1.62,1.04.76-1.21,1.36-2.56,2.32-3.59,11.43-12.3,22.93-24.54,34.37-36.83,4.68-5.03,10.26-7.36,17.05-5.55,12.48,3.33,16.23,17.95,7.09,27.79-16.51,17.79-33.13,35.49-49.7,53.23-5.45,5.83-10.84,11.72-16.35,17.49-7.92,8.31-17.96,8.36-25.72.08-21.93-23.43-43.82-46.89-65.69-70.37-7.26-7.79-7.33-17.89-.31-24.4,7.08-6.55,16.93-5.79,24.3,2.05,12.4,13.17,24.72,26.43,37.07,39.64.38-.13.76-.26,1.14-.39Z"/>
</svg>